<svg width="24" height="24" viewBox="0 0 24 24" fill="none" xmlns="http://www.w3.org/2000/svg">
<path d="M11.5625 13.875C17.9481 13.875 23.125 16.2908 23.125 19.2708V23.125H0V19.2708C0 16.2908 5.17692 13.875 11.5625 13.875ZM21.5833 19.2708C21.5833 17.1433 17.0971 15.4167 11.5625 15.4167C6.02792 15.4167 1.54167 17.1433 1.54167 19.2708V21.5833H21.5833V19.2708ZM11.5625 0C12.9936 0 14.366 0.568488 15.3779 1.5804C16.3898 2.59232 16.9583 3.96477 16.9583 5.39583C16.9583 6.8269 16.3898 8.19935 15.3779 9.21126C14.366 10.2232 12.9936 10.7917 11.5625 10.7917C10.1314 10.7917 8.75898 10.2232 7.74707 9.21126C6.73515 8.19935 6.16667 6.8269 6.16667 5.39583C6.16667 3.96477 6.73515 2.59232 7.74707 1.5804C8.75898 0.568488 10.1314 0 11.5625 0ZM11.5625 1.54167C10.5403 1.54167 9.55999 1.94773 8.83719 2.67053C8.1144 3.39332 7.70833 4.37364 7.70833 5.39583C7.70833 6.41802 8.1144 7.39834 8.83719 8.12114C9.55999 8.84394 10.5403 9.25 11.5625 9.25C12.5847 9.25 13.565 8.84394 14.2878 8.12114C15.0106 7.39834 15.4167 6.41802 15.4167 5.39583C15.4167 4.37364 15.0106 3.39332 14.2878 2.67053C13.565 1.94773 12.5847 1.54167 11.5625 1.54167Z" fill="#CECECE"/>
</svg>
